<svg width="800" height="800" viewBox="0 0 512 512" xmlns="http://www.w3.org/2000/svg"><g id="Page-1" stroke="none" stroke-width="1" fill="none" fill-rule="evenodd"><path d="M185.47 39.208h170.666v42.666H185.47V39.208Zm0 149.333h170.666v42.667H185.47V188.54Zm0 149.333h170.666v42.667H185.47v-42.667ZM119.284 0l25.364 19.51-76.032 98.843L0 58.313l21.072-24.082L64.04 71.805 119.285 0Zm0 149.333 25.364 19.511-76.032 98.842L0 207.646l21.072-24.082 42.968 37.574 55.245-71.805Zm0 149.334 25.364 19.51-76.032 98.843L0 356.98l21.072-24.082 42.968 37.574 55.245-71.805Z" transform="translate(70.53 46.126)" id="Combined-Shape" fill="#000"/></g></svg>