<svg width="800" height="800" viewBox="0 0 32 32" xmlns="http://www.w3.org/2000/svg"><path d="M5.582 20.054 20.468 5.168l6.369 6.369-14.886 14.886-6.369-6.369zM21.153 8.758l-.698-.697-11.981 11.98.698.698L21.153 8.758zm1.396 1.396-.698-.698L9.87 21.438l.697.697 11.982-11.981zm1.396 1.396-.698-.698-11.981 11.981.698.698L23.945 11.55zm-.626-9.194a1.994 1.994 0 0 1 2.82-.013l3.512 3.512c.775.775.77 2.038-.012 2.82l-2.17 2.17-6.32-6.32 2.17-2.169zM5.092 20.883l6.03 6.03-5.284 1.877-2.623-2.623 1.877-5.284zm-.255 8.234-3.066 1.117 1.117-3.066 1.949 1.949z"/></svg>